<mxfile host="app.diagrams.net" modified="2021-05-06T09:20:45.628Z" agent="5.0 (Windows NT 10.0; Win64; x64) AppleWebKit/537.36 (KHTML, like Gecko) Chrome/90.0.4430.93 Safari/537.36" etag="rBVCrtlZVGp1qiTGCA0Q" version="14.6.9" type="github">
  <diagram id="cCekQ415Pg1JoXyos1Rl" name="第 1 页">
    <mxGraphModel dx="1422" dy="772" grid="1" gridSize="10" guides="1" tooltips="1" connect="1" arrows="1" fold="1" page="1" pageScale="1" pageWidth="827" pageHeight="1169" math="0" shadow="0">
      <root>
        <mxCell id="0" />
        <mxCell id="1" parent="0" />
        <mxCell id="pOvYfX3GyNNsW5DPszu--1" value="&lt;font style=&quot;font-size: 16px&quot;&gt;卫&lt;br&gt;生&lt;br&gt;信&lt;br&gt;息&lt;br&gt;数&lt;br&gt;据&lt;br&gt;元&lt;br&gt;与&lt;br&gt;数&lt;br&gt;据&lt;br&gt;标&lt;br&gt;准&lt;br&gt;体&lt;br&gt;系&lt;/font&gt;" style="rounded=0;whiteSpace=wrap;html=1;" vertex="1" parent="1">
          <mxGeometry x="90" y="50" width="60" height="560" as="geometry" />
        </mxCell>
        <mxCell id="pOvYfX3GyNNsW5DPszu--2" value="&lt;font style=&quot;font-size: 16px&quot;&gt;数&lt;br&gt;据&lt;br&gt;安&lt;br&gt;全&lt;br&gt;与&lt;br&gt;隐&lt;br&gt;私&lt;br&gt;保&lt;br&gt;护&lt;br&gt;标&lt;br&gt;准&lt;/font&gt;" style="rounded=0;whiteSpace=wrap;html=1;" vertex="1" parent="1">
          <mxGeometry x="810" y="50" width="60" height="560" as="geometry" />
        </mxCell>
        <mxCell id="pOvYfX3GyNNsW5DPszu--3" value="" style="rounded=0;whiteSpace=wrap;html=1;" vertex="1" parent="1">
          <mxGeometry x="156" y="50" width="644" height="130" as="geometry" />
        </mxCell>
        <mxCell id="pOvYfX3GyNNsW5DPszu--4" value="" style="rounded=0;whiteSpace=wrap;html=1;" vertex="1" parent="1">
          <mxGeometry x="170" y="80" width="188" height="90" as="geometry" />
        </mxCell>
        <mxCell id="pOvYfX3GyNNsW5DPszu--5" value="PC端" style="rounded=0;whiteSpace=wrap;html=1;" vertex="1" parent="1">
          <mxGeometry x="200" y="120" width="50" height="40" as="geometry" />
        </mxCell>
        <mxCell id="pOvYfX3GyNNsW5DPszu--6" value="移动端" style="rounded=0;whiteSpace=wrap;html=1;" vertex="1" parent="1">
          <mxGeometry x="272" y="120" width="50" height="40" as="geometry" />
        </mxCell>
        <mxCell id="pOvYfX3GyNNsW5DPszu--7" value="居民端" style="text;html=1;strokeColor=none;fillColor=none;align=center;verticalAlign=middle;whiteSpace=wrap;rounded=0;fontSize=16;" vertex="1" parent="1">
          <mxGeometry x="228" y="90" width="90" height="30" as="geometry" />
        </mxCell>
        <mxCell id="pOvYfX3GyNNsW5DPszu--9" value="" style="rounded=0;whiteSpace=wrap;html=1;" vertex="1" parent="1">
          <mxGeometry x="378" y="80" width="200" height="90" as="geometry" />
        </mxCell>
        <mxCell id="pOvYfX3GyNNsW5DPszu--10" value="应用展现" style="text;html=1;strokeColor=none;fillColor=none;align=center;verticalAlign=middle;whiteSpace=wrap;rounded=0;fontSize=16;" vertex="1" parent="1">
          <mxGeometry x="420" y="50" width="86" height="20" as="geometry" />
        </mxCell>
        <mxCell id="pOvYfX3GyNNsW5DPszu--11" value="医生端" style="text;html=1;strokeColor=none;fillColor=none;align=center;verticalAlign=middle;whiteSpace=wrap;rounded=0;fontSize=16;" vertex="1" parent="1">
          <mxGeometry x="435" y="90" width="90" height="30" as="geometry" />
        </mxCell>
        <mxCell id="pOvYfX3GyNNsW5DPszu--12" value="医生端" style="rounded=0;whiteSpace=wrap;html=1;" vertex="1" parent="1">
          <mxGeometry x="454" y="120" width="50" height="40" as="geometry" />
        </mxCell>
        <mxCell id="pOvYfX3GyNNsW5DPszu--16" value="" style="rounded=0;whiteSpace=wrap;html=1;" vertex="1" parent="1">
          <mxGeometry x="598" y="80" width="192" height="90" as="geometry" />
        </mxCell>
        <mxCell id="pOvYfX3GyNNsW5DPszu--17" value="监管端" style="text;html=1;strokeColor=none;fillColor=none;align=center;verticalAlign=middle;whiteSpace=wrap;rounded=0;fontSize=16;" vertex="1" parent="1">
          <mxGeometry x="640" y="90" width="90" height="30" as="geometry" />
        </mxCell>
        <mxCell id="pOvYfX3GyNNsW5DPszu--18" value="PC端" style="rounded=0;whiteSpace=wrap;html=1;" vertex="1" parent="1">
          <mxGeometry x="630" y="120" width="50" height="40" as="geometry" />
        </mxCell>
        <mxCell id="pOvYfX3GyNNsW5DPszu--19" value="移动端" style="rounded=0;whiteSpace=wrap;html=1;" vertex="1" parent="1">
          <mxGeometry x="710" y="120" width="50" height="40" as="geometry" />
        </mxCell>
        <mxCell id="pOvYfX3GyNNsW5DPszu--20" value="" style="rounded=0;whiteSpace=wrap;html=1;fontSize=16;" vertex="1" parent="1">
          <mxGeometry x="170" y="190" width="620" height="90" as="geometry" />
        </mxCell>
        <mxCell id="pOvYfX3GyNNsW5DPszu--21" value="人员查询" style="rounded=0;whiteSpace=wrap;html=1;" vertex="1" parent="1">
          <mxGeometry x="222" y="230" width="50" height="40" as="geometry" />
        </mxCell>
        <mxCell id="pOvYfX3GyNNsW5DPszu--22" value="事件查询" style="rounded=0;whiteSpace=wrap;html=1;" vertex="1" parent="1">
          <mxGeometry x="310" y="230" width="50" height="40" as="geometry" />
        </mxCell>
        <mxCell id="pOvYfX3GyNNsW5DPszu--23" value="摘要查询" style="rounded=0;whiteSpace=wrap;html=1;" vertex="1" parent="1">
          <mxGeometry x="405" y="230" width="50" height="40" as="geometry" />
        </mxCell>
        <mxCell id="pOvYfX3GyNNsW5DPszu--24" value="展示引擎" style="rounded=0;whiteSpace=wrap;html=1;" vertex="1" parent="1">
          <mxGeometry x="498" y="230" width="50" height="40" as="geometry" />
        </mxCell>
        <mxCell id="pOvYfX3GyNNsW5DPszu--25" value="报告查询" style="rounded=0;whiteSpace=wrap;html=1;" vertex="1" parent="1">
          <mxGeometry x="607" y="230" width="50" height="40" as="geometry" />
        </mxCell>
        <mxCell id="pOvYfX3GyNNsW5DPszu--26" value="审计查询" style="rounded=0;whiteSpace=wrap;html=1;" vertex="1" parent="1">
          <mxGeometry x="688" y="230" width="50" height="40" as="geometry" />
        </mxCell>
        <mxCell id="pOvYfX3GyNNsW5DPszu--35" value="" style="rounded=0;whiteSpace=wrap;html=1;fontSize=16;" vertex="1" parent="1">
          <mxGeometry x="170" y="290" width="630" height="80" as="geometry" />
        </mxCell>
        <mxCell id="pOvYfX3GyNNsW5DPszu--36" value="个人索引" style="shape=cylinder3;whiteSpace=wrap;html=1;boundedLbl=1;backgroundOutline=1;size=15;fontSize=12;" vertex="1" parent="1">
          <mxGeometry x="220" y="315" width="50" height="50" as="geometry" />
        </mxCell>
        <mxCell id="pOvYfX3GyNNsW5DPszu--37" value="事件索引" style="shape=cylinder3;whiteSpace=wrap;html=1;boundedLbl=1;backgroundOutline=1;size=15;fontSize=12;" vertex="1" parent="1">
          <mxGeometry x="302" y="312.5" width="60" height="55" as="geometry" />
        </mxCell>
        <mxCell id="pOvYfX3GyNNsW5DPszu--38" value="摘要查询" style="shape=cylinder3;whiteSpace=wrap;html=1;boundedLbl=1;backgroundOutline=1;size=15;fontSize=12;" vertex="1" parent="1">
          <mxGeometry x="400" y="312.5" width="58" height="55" as="geometry" />
        </mxCell>
        <mxCell id="pOvYfX3GyNNsW5DPszu--39" value="展示引擎" style="shape=cylinder3;whiteSpace=wrap;html=1;boundedLbl=1;backgroundOutline=1;size=15;fontSize=12;" vertex="1" parent="1">
          <mxGeometry x="492" y="310" width="58" height="55" as="geometry" />
        </mxCell>
        <mxCell id="pOvYfX3GyNNsW5DPszu--40" value="报告查询" style="shape=cylinder3;whiteSpace=wrap;html=1;boundedLbl=1;backgroundOutline=1;size=15;fontSize=12;" vertex="1" parent="1">
          <mxGeometry x="606" y="315" width="58" height="55" as="geometry" />
        </mxCell>
        <mxCell id="pOvYfX3GyNNsW5DPszu--41" value="审计查询" style="shape=cylinder3;whiteSpace=wrap;html=1;boundedLbl=1;backgroundOutline=1;size=15;fontSize=12;" vertex="1" parent="1">
          <mxGeometry x="690" y="312.5" width="58" height="55" as="geometry" />
        </mxCell>
        <mxCell id="pOvYfX3GyNNsW5DPszu--42" value="" style="rounded=0;whiteSpace=wrap;html=1;fontSize=16;" vertex="1" parent="1">
          <mxGeometry x="170" y="390" width="630" height="60" as="geometry" />
        </mxCell>
        <mxCell id="pOvYfX3GyNNsW5DPszu--43" value="人员注册" style="rounded=0;whiteSpace=wrap;html=1;" vertex="1" parent="1">
          <mxGeometry x="222" y="400" width="50" height="40" as="geometry" />
        </mxCell>
        <mxCell id="pOvYfX3GyNNsW5DPszu--44" value="文档注册" style="rounded=0;whiteSpace=wrap;html=1;" vertex="1" parent="1">
          <mxGeometry x="320" y="400" width="50" height="40" as="geometry" />
        </mxCell>
        <mxCell id="pOvYfX3GyNNsW5DPszu--45" value="索引服务" style="rounded=0;whiteSpace=wrap;html=1;" vertex="1" parent="1">
          <mxGeometry x="400" y="400" width="50" height="40" as="geometry" />
        </mxCell>
        <mxCell id="pOvYfX3GyNNsW5DPszu--46" value="组装服务" style="rounded=0;whiteSpace=wrap;html=1;" vertex="1" parent="1">
          <mxGeometry x="500" y="400" width="50" height="40" as="geometry" />
        </mxCell>
        <mxCell id="pOvYfX3GyNNsW5DPszu--47" value="数据标准化" style="rounded=0;whiteSpace=wrap;html=1;" vertex="1" parent="1">
          <mxGeometry x="582" y="400" width="70" height="40" as="geometry" />
        </mxCell>
        <mxCell id="pOvYfX3GyNNsW5DPszu--48" value="报告查询服务" style="rounded=0;whiteSpace=wrap;html=1;" vertex="1" parent="1">
          <mxGeometry x="685" y="400" width="68" height="40" as="geometry" />
        </mxCell>
        <mxCell id="pOvYfX3GyNNsW5DPszu--50" value="" style="rounded=0;whiteSpace=wrap;html=1;fontSize=12;" vertex="1" parent="1">
          <mxGeometry x="174" y="490" width="140" height="120" as="geometry" />
        </mxCell>
        <mxCell id="pOvYfX3GyNNsW5DPszu--51" value="结构化数据-医疗" style="text;html=1;strokeColor=none;fillColor=none;align=center;verticalAlign=middle;whiteSpace=wrap;rounded=0;fontSize=16;" vertex="1" parent="1">
          <mxGeometry x="178" y="490" width="126" height="30" as="geometry" />
        </mxCell>
        <mxCell id="pOvYfX3GyNNsW5DPszu--52" value="门诊记录" style="rounded=0;whiteSpace=wrap;html=1;fontSize=12;" vertex="1" parent="1">
          <mxGeometry x="179" y="520" width="60" height="25" as="geometry" />
        </mxCell>
        <mxCell id="pOvYfX3GyNNsW5DPszu--53" value="住院记录" style="rounded=0;whiteSpace=wrap;html=1;fontSize=12;" vertex="1" parent="1">
          <mxGeometry x="244" y="520" width="60" height="25" as="geometry" />
        </mxCell>
        <mxCell id="pOvYfX3GyNNsW5DPszu--54" value="检查检验" style="rounded=0;whiteSpace=wrap;html=1;fontSize=12;" vertex="1" parent="1">
          <mxGeometry x="179" y="550" width="60" height="25" as="geometry" />
        </mxCell>
        <mxCell id="pOvYfX3GyNNsW5DPszu--55" value="电子病历" style="rounded=0;whiteSpace=wrap;html=1;fontSize=12;" vertex="1" parent="1">
          <mxGeometry x="244" y="550" width="60" height="25" as="geometry" />
        </mxCell>
        <mxCell id="pOvYfX3GyNNsW5DPszu--56" value="检查检验" style="rounded=0;whiteSpace=wrap;html=1;fontSize=12;" vertex="1" parent="1">
          <mxGeometry x="179" y="580" width="60" height="25" as="geometry" />
        </mxCell>
        <mxCell id="pOvYfX3GyNNsW5DPszu--57" value="......" style="rounded=0;whiteSpace=wrap;html=1;fontSize=12;" vertex="1" parent="1">
          <mxGeometry x="244" y="580" width="60" height="25" as="geometry" />
        </mxCell>
        <mxCell id="pOvYfX3GyNNsW5DPszu--58" value="" style="rounded=0;whiteSpace=wrap;html=1;fontSize=12;" vertex="1" parent="1">
          <mxGeometry x="334" y="490" width="140" height="120" as="geometry" />
        </mxCell>
        <mxCell id="pOvYfX3GyNNsW5DPszu--59" value="结构化数据-公卫" style="text;html=1;strokeColor=none;fillColor=none;align=center;verticalAlign=middle;whiteSpace=wrap;rounded=0;fontSize=16;" vertex="1" parent="1">
          <mxGeometry x="338" y="490" width="126" height="30" as="geometry" />
        </mxCell>
        <mxCell id="pOvYfX3GyNNsW5DPszu--60" value="健康档案" style="rounded=0;whiteSpace=wrap;html=1;fontSize=12;" vertex="1" parent="1">
          <mxGeometry x="339" y="520" width="60" height="25" as="geometry" />
        </mxCell>
        <mxCell id="pOvYfX3GyNNsW5DPszu--61" value="儿童保健" style="rounded=0;whiteSpace=wrap;html=1;fontSize=12;" vertex="1" parent="1">
          <mxGeometry x="404" y="520" width="60" height="25" as="geometry" />
        </mxCell>
        <mxCell id="pOvYfX3GyNNsW5DPszu--62" value="妇女保健" style="rounded=0;whiteSpace=wrap;html=1;fontSize=12;" vertex="1" parent="1">
          <mxGeometry x="339" y="550" width="60" height="25" as="geometry" />
        </mxCell>
        <mxCell id="pOvYfX3GyNNsW5DPszu--63" value="疾病控制" style="rounded=0;whiteSpace=wrap;html=1;fontSize=12;" vertex="1" parent="1">
          <mxGeometry x="404" y="550" width="60" height="25" as="geometry" />
        </mxCell>
        <mxCell id="pOvYfX3GyNNsW5DPszu--64" value="疾病管理" style="rounded=0;whiteSpace=wrap;html=1;fontSize=12;" vertex="1" parent="1">
          <mxGeometry x="339" y="580" width="60" height="25" as="geometry" />
        </mxCell>
        <mxCell id="pOvYfX3GyNNsW5DPszu--65" value="......" style="rounded=0;whiteSpace=wrap;html=1;fontSize=12;" vertex="1" parent="1">
          <mxGeometry x="404" y="580" width="60" height="25" as="geometry" />
        </mxCell>
        <mxCell id="pOvYfX3GyNNsW5DPszu--66" value="" style="rounded=0;whiteSpace=wrap;html=1;fontSize=12;" vertex="1" parent="1">
          <mxGeometry x="494" y="490" width="140" height="120" as="geometry" />
        </mxCell>
        <mxCell id="pOvYfX3GyNNsW5DPszu--67" value="非结构化数据" style="text;html=1;strokeColor=none;fillColor=none;align=center;verticalAlign=middle;whiteSpace=wrap;rounded=0;fontSize=16;" vertex="1" parent="1">
          <mxGeometry x="498" y="490" width="126" height="30" as="geometry" />
        </mxCell>
        <mxCell id="pOvYfX3GyNNsW5DPszu--68" value="健康档案" style="rounded=0;whiteSpace=wrap;html=1;fontSize=12;" vertex="1" parent="1">
          <mxGeometry x="499" y="520" width="60" height="25" as="geometry" />
        </mxCell>
        <mxCell id="pOvYfX3GyNNsW5DPszu--69" value="儿童保健" style="rounded=0;whiteSpace=wrap;html=1;fontSize=12;" vertex="1" parent="1">
          <mxGeometry x="564" y="520" width="60" height="25" as="geometry" />
        </mxCell>
        <mxCell id="pOvYfX3GyNNsW5DPszu--70" value="妇女保健" style="rounded=0;whiteSpace=wrap;html=1;fontSize=12;" vertex="1" parent="1">
          <mxGeometry x="499" y="550" width="60" height="25" as="geometry" />
        </mxCell>
        <mxCell id="pOvYfX3GyNNsW5DPszu--71" value="疾病控制" style="rounded=0;whiteSpace=wrap;html=1;fontSize=12;" vertex="1" parent="1">
          <mxGeometry x="564" y="550" width="60" height="25" as="geometry" />
        </mxCell>
        <mxCell id="pOvYfX3GyNNsW5DPszu--72" value="疾病管理" style="rounded=0;whiteSpace=wrap;html=1;fontSize=12;" vertex="1" parent="1">
          <mxGeometry x="499" y="580" width="60" height="25" as="geometry" />
        </mxCell>
        <mxCell id="pOvYfX3GyNNsW5DPszu--73" value="......" style="rounded=0;whiteSpace=wrap;html=1;fontSize=12;" vertex="1" parent="1">
          <mxGeometry x="564" y="580" width="60" height="25" as="geometry" />
        </mxCell>
        <mxCell id="pOvYfX3GyNNsW5DPszu--74" value="" style="rounded=0;whiteSpace=wrap;html=1;fontSize=12;" vertex="1" parent="1">
          <mxGeometry x="646" y="490" width="140" height="120" as="geometry" />
        </mxCell>
        <mxCell id="pOvYfX3GyNNsW5DPszu--75" value="其他共享方式" style="text;html=1;strokeColor=none;fillColor=none;align=center;verticalAlign=middle;whiteSpace=wrap;rounded=0;fontSize=16;" vertex="1" parent="1">
          <mxGeometry x="650" y="490" width="126" height="30" as="geometry" />
        </mxCell>
        <mxCell id="pOvYfX3GyNNsW5DPszu--76" value="穿戴设备" style="rounded=0;whiteSpace=wrap;html=1;fontSize=12;" vertex="1" parent="1">
          <mxGeometry x="651" y="520" width="60" height="25" as="geometry" />
        </mxCell>
        <mxCell id="pOvYfX3GyNNsW5DPszu--77" value="链接" style="rounded=0;whiteSpace=wrap;html=1;fontSize=12;" vertex="1" parent="1">
          <mxGeometry x="716" y="520" width="60" height="25" as="geometry" />
        </mxCell>
        <mxCell id="pOvYfX3GyNNsW5DPszu--78" value="接口" style="rounded=0;whiteSpace=wrap;html=1;fontSize=12;" vertex="1" parent="1">
          <mxGeometry x="651" y="550" width="60" height="25" as="geometry" />
        </mxCell>
        <mxCell id="pOvYfX3GyNNsW5DPszu--81" value="......" style="rounded=0;whiteSpace=wrap;html=1;fontSize=12;" vertex="1" parent="1">
          <mxGeometry x="716" y="550" width="60" height="25" as="geometry" />
        </mxCell>
        <mxCell id="pOvYfX3GyNNsW5DPszu--82" value="共享服务" style="text;html=1;strokeColor=none;fillColor=none;align=center;verticalAlign=middle;whiteSpace=wrap;rounded=0;fontSize=16;" vertex="1" parent="1">
          <mxGeometry x="450" y="190" width="90" height="30" as="geometry" />
        </mxCell>
        <mxCell id="pOvYfX3GyNNsW5DPszu--83" value="调阅数据库" style="text;html=1;strokeColor=none;fillColor=none;align=center;verticalAlign=middle;whiteSpace=wrap;rounded=0;fontSize=16;" vertex="1" parent="1">
          <mxGeometry x="418" y="285" width="90" height="30" as="geometry" />
        </mxCell>
        <mxCell id="pOvYfX3GyNNsW5DPszu--86" value="" style="shape=flexArrow;endArrow=classic;html=1;fontSize=12;fillColor=#CCCCCC;exitX=0.365;exitY=-0.167;exitDx=0;exitDy=0;exitPerimeter=0;entryX=0.102;entryY=1.05;entryDx=0;entryDy=0;entryPerimeter=0;" edge="1" parent="1" target="pOvYfX3GyNNsW5DPszu--42">
          <mxGeometry width="50" height="50" relative="1" as="geometry">
            <mxPoint x="232.99" y="487.99" as="sourcePoint" />
            <mxPoint x="240" y="460" as="targetPoint" />
          </mxGeometry>
        </mxCell>
        <mxCell id="pOvYfX3GyNNsW5DPszu--89" value="" style="shape=flexArrow;endArrow=classic;html=1;fontSize=12;fillColor=#CCCCCC;exitX=0.365;exitY=-0.167;exitDx=0;exitDy=0;exitPerimeter=0;entryX=0.102;entryY=1.05;entryDx=0;entryDy=0;entryPerimeter=0;" edge="1" parent="1">
          <mxGeometry width="50" height="50" relative="1" as="geometry">
            <mxPoint x="412" y="484.99" as="sourcePoint" />
            <mxPoint x="413.27" y="450" as="targetPoint" />
          </mxGeometry>
        </mxCell>
        <mxCell id="pOvYfX3GyNNsW5DPszu--90" value="" style="shape=flexArrow;endArrow=classic;html=1;fontSize=12;fillColor=#CCCCCC;exitX=0.365;exitY=-0.167;exitDx=0;exitDy=0;exitPerimeter=0;entryX=0.102;entryY=1.05;entryDx=0;entryDy=0;entryPerimeter=0;" edge="1" parent="1">
          <mxGeometry width="50" height="50" relative="1" as="geometry">
            <mxPoint x="550" y="484.99" as="sourcePoint" />
            <mxPoint x="551.27" y="450" as="targetPoint" />
          </mxGeometry>
        </mxCell>
        <mxCell id="pOvYfX3GyNNsW5DPszu--91" value="" style="shape=flexArrow;endArrow=classic;html=1;fontSize=12;fillColor=#CCCCCC;exitX=0.365;exitY=-0.167;exitDx=0;exitDy=0;exitPerimeter=0;entryX=0.102;entryY=1.05;entryDx=0;entryDy=0;entryPerimeter=0;" edge="1" parent="1">
          <mxGeometry width="50" height="50" relative="1" as="geometry">
            <mxPoint x="710" y="490" as="sourcePoint" />
            <mxPoint x="711.27" y="455.01" as="targetPoint" />
          </mxGeometry>
        </mxCell>
      </root>
    </mxGraphModel>
  </diagram>
</mxfile>
